<?xml version="1.0"?>
<svg xmlns="http://www.w3.org/2000/svg" xmlns:xlink="http://www.w3.org/1999/xlink" version="1.1" id="Capa_1" x="0px" y="0px" viewBox="0 0 60 60" style="enable-background:new 0 0 60 60;" xml:space="preserve" width="512px" height="512px" class=""><g><link xmlns="" type="text/css" id="dark-mode" rel="stylesheet" class="active-path" style="fill:#B20C0C" data-old_color="#260A0A"/><style xmlns="" type="text/css" id="dark-mode-custom-style" class="active-path" style="fill:#E45454" data-old_color="#260A0A"/><g>
	<path d="M30,16c4.411,0,8-3.589,8-8s-3.589-8-8-8s-8,3.589-8,8S25.589,16,30,16z M30,2c3.309,0,6,2.691,6,6s-2.691,6-6,6   s-6-2.691-6-6S26.691,2,30,2z" data-original="#000000" class="active-path" data-old_color="#260A0A" fill="#E45454"/>
	<path d="M30,44c-4.411,0-8,3.589-8,8s3.589,8,8,8s8-3.589,8-8S34.411,44,30,44z M30,58c-3.309,0-6-2.691-6-6s2.691-6,6-6   s6,2.691,6,6S33.309,58,30,58z" data-original="#000000" class="active-path" data-old_color="#260A0A" fill="#E45454"/>
	<path d="M30,22c-4.411,0-8,3.589-8,8s3.589,8,8,8s8-3.589,8-8S34.411,22,30,22z M30,36c-3.309,0-6-2.691-6-6s2.691-6,6-6   s6,2.691,6,6S33.309,36,30,36z" data-original="#000000" class="active-path" data-old_color="#260A0A" fill="#E45454"/>
</g></g> </svg>
